# xmcd
#
# Track frame offsets:
#	150
#	68195
#	111520
#	156722
#	189822
#
# Disc length: 2818 seconds
#
# Revision: 1
# Processed by: cddbd v1.5.2PL0 Copyright (c) Steve Scherf et al.
# Submitted via: audiograbber 1.83.01
#
DISCID=440b0005
DTITLE=Grateful Dead - 94-04-01 The Omni, Atlanta GA
DYEAR=1900
DGENRE=
TTITLE0=Space
TTITLE1=The Other One
TTITLE2=Wharf Rat
TTITLE3=Turn On Your Lovelight
TTITLE4=Brokedown Palace
EXTD=
EXTT0=
EXTT1=
EXTT2=
EXTT3=
EXTT4=
PLAYORDER=
